<svg xmlns="http://www.w3.org/2000/svg" xmlns:xlink="http://www.w3.org/1999/xlink" version="1.1" x="0px" y="0px" viewBox="0 0 66 82.5" style="enable-background:new 0 0 66 66;" xml:space="preserve"><path d="M29.09,14.41c-0.61-0.61-1.41-0.91-2.21-0.91s-1.6,0.3-2.21,0.91c-1.21,1.22-1.21,3.2,0,4.42l4.15,4.14l-4.44,4.43  l3.31,3.31l4.44-4.43l7.8,7.81l-4.43,4.43l3.31,3.31l4.43-4.43l4.15,4.14c0.61,0.61,1.41,0.92,2.2,0.92c0.8,0,1.6-0.31,2.21-0.92  c1.22-1.22,1.22-3.2,0-4.41L29.09,14.41z"/><path d="M18.61,24.46c-1.22-1.22-3.19-1.22-4.41,0v0c-1.22,1.22-1.22,3.19,0,4.41l22.71,22.71c1.22,1.22,3.19,1.22,4.41,0  s1.22-3.19,0-4.41L18.61,24.46z"/><path d="M16.37,52.84c1.85,0,3.35-1.5,3.35-3.35c0-1.85-1.5-3.35-3.35-3.35s-3.35,1.5-3.35,3.35  C13.02,51.33,14.52,52.84,16.37,52.84z"/><path d="M64.41,6.1l-4.33-4.33c-0.78-0.78-2.05-0.78-2.83,0l-1.07,1.07c1.49,0.82,2.88,1.84,4.11,3.08  c1.24,1.24,2.25,2.62,3.05,4.08l1.07-1.07C65.2,8.14,65.2,6.88,64.41,6.1z"/><path d="M49.66,13.2c-1.85,0-3.35,1.5-3.35,3.35c0,1.85,1.5,3.35,3.35,3.35s3.35-1.5,3.35-3.35C53.01,14.7,51.51,13.2,49.66,13.2z"/><path d="M58.88,7.33c-6.25-6.25-16.38-6.25-22.63,0l-5.71,5.71l22.63,22.63l5.71-5.71C65.13,23.71,65.13,13.58,58.88,7.33  L58.88,7.33z M49.66,21.9c-2.95,0-5.35-2.4-5.35-5.35s2.4-5.35,5.35-5.35s5.35,2.4,5.35,5.35S52.61,21.9,49.66,21.9z"/><path d="M2.65,56.01l-1.07,1.07c-0.78,0.78-0.78,2.05,0,2.83l4.33,4.33c0.78,0.78,2.05,0.78,2.83,0l1.07-1.07  c-1.49-0.82-2.88-1.84-4.11-3.08C4.46,58.85,3.46,57.47,2.65,56.01z"/><path d="M7.12,36.05c-6.25,6.25-6.25,16.38,0,22.63v0c6.25,6.25,16.38,6.25,22.63,0l5.71-5.71L12.83,30.33L7.12,36.05z M21.72,49.49  c0,2.95-2.4,5.35-5.35,5.35s-5.35-2.4-5.35-5.35s2.4-5.35,5.35-5.35S21.72,46.54,21.72,49.49z"/><text x="0" y="81" fill="#000000" font-size="5px" font-weight="bold" font-family="'Helvetica Neue', Helvetica, Arial-Unicode, Arial, Sans-serif">Created by Candy Design</text><text x="0" y="86" fill="#000000" font-size="5px" font-weight="bold" font-family="'Helvetica Neue', Helvetica, Arial-Unicode, Arial, Sans-serif">from the Noun Project</text></svg>